<mxfile host="app.diagrams.net" modified="2024-04-27T15:32:33.137Z" agent="Mozilla/5.0 (Macintosh; Intel Mac OS X 10_15_7) AppleWebKit/605.1.15 (KHTML, like Gecko) Version/17.3.1 Safari/605.1.15" version="24.3.1" etag="QkZHvAN7_VYNHtgN_dyi" type="github">
  <diagram name="Page-1" id="jo8_QUcWNtc_KbHIS96F">
    <mxGraphModel>
      <root>
        <mxCell id="0" />
        <mxCell id="1" parent="0" />
      </root>
    </mxGraphModel>
  </diagram>
</mxfile>
